<?xml version="1.0" encoding="UTF-8"?>
<svg id="Calque_2" xmlns="http://www.w3.org/2000/svg" viewBox="0 0 93.51 115.95">
  <defs>
    <style>
      .cls-1 {
        fill: #34d399;
      }
    </style>
  </defs>
  <g id="OBJECTS">
    <g>
      <path class="cls-1" d="M80.16,63.9c-5.36-6.5-16.77-8.66-25.52-2.59-11.28,7.81-17.51,20.6-16.92,33.23.58,12.62,12.66,23.17,21.36,21.16,8.7-2.01,13.4-18.35,16.85-27.49,3.45-9.14,9.6-17.81,4.24-24.31ZM71.22,82.2c-.67.64-1.73.6-2.36-.07l-5.98-6.36-3.17,8.51c.17.07.33.16.47.29l6.38,5.98c.67.63.71,1.69.08,2.36-.4.43-.97.6-1.51.5-.31-.05-.61-.2-.86-.43l-5.79-5.43-4.25,11.39c-.28.77-1.07,1.2-1.85,1.06-.1-.02-.2-.04-.3-.08-.87-.32-1.31-1.29-.98-2.15l9.58-25.7c.2-.54.67-.94,1.23-1.05.57-.12,1.15.07,1.55.49l7.83,8.32c.63.67.6,1.73-.07,2.36Z"/>
      <path class="cls-1" d="M47,43.62c2.41,2.42,5.4,7.17,8.94,7.99,4.7,1.09,9.43-3.34,12.41-6.31,1.65-1.65,3.63-3.06,4.84-5.06,1.43-2.37,2.85-4.88,4.12-7.32,4.06-7.78-.09-19.65-5.6-25.77C65.46.18,55.39-2.41,49.5,2.63c-1.95.69-3.45,3.46-4.55,5.07-2,2.91-3.33,5.97-4.24,9.39-1.08,4.09-1.6,8.85-.94,13.04.89,5.66,3.23,9.47,7.23,13.49ZM49.32,23.82c.38-1,3.47-5.97,5.14-8.64l-.17-.63c-.23-.89.3-1.81,1.19-2.04.89-.23,1.81.3,2.04,1.19l.21.79,9.48,7.4c.73.57.86,1.62.29,2.35-.23.3-.55.5-.89.59-.49.13-1.03.04-1.46-.3l-6.01-4.7,4.19,15.92c.24.89-.3,1.81-1.19,2.04-.89.23-1.81-.3-2.04-1.19l-4.46-16.96c-1.62,2.62-2.99,4.91-3.19,5.39-.35.84-1.32,1.27-2.17.93-.85-.34-1.27-1.27-.95-2.12Z"/>
      <path class="cls-1" d="M22.13,32.14c-4.27-2.08-8.18-2.02-13.98.29-4.42,1.54-6.44,9.43-7.07,13.46-.99,6.37-1.52,12.99-.66,19.38.57,4.25.85,9.55,3.58,13.08,2.86,3.69,9.49,4.97,13.86,4.82,5.44-.19,10.23-2.69,13.12-7.35,2.23-3.6,2.39-8.48,2.77-12.61.68-7.48,1.96-17.06-2.48-23.72-2.1-3.16-5.77-5.7-9.16-7.35ZM24.62,67.34c0,.92-.75,1.67-1.67,1.67s-1.67-.75-1.67-1.67v-15.7l-5.55-3.12v18.82c0,.92-.75,1.67-1.67,1.67s-1.67-.75-1.67-1.67v-21.68c0-.59.31-1.14.83-1.44.51-.3,1.15-.31,1.66-.01l8.89,5c.53.3.85.85.85,1.46v16.68Z"/>
      <circle class="cls-1" cx="27.58" cy="94.47" r="2.96"/>
      <path class="cls-1" d="M26.82,23.17c2.96,0,5.35-2.4,5.35-5.35s-2.4-5.35-5.35-5.35-5.35,2.4-5.35,5.35,2.4,5.35,5.35,5.35Z"/>
      <path class="cls-1" d="M85.46,43.98c-1.4,0-2.54,1.14-2.54,2.54s1.14,2.54,2.54,2.54,2.54-1.14,2.54-2.54-1.14-2.54-2.54-2.54Z"/>
      <path class="cls-1" d="M11.96,91.52c-1.85,0-3.35,1.5-3.35,3.35s1.5,3.35,3.35,3.35,3.35-1.5,3.35-3.35-1.5-3.35-3.35-3.35Z"/>
      <path class="cls-1" d="M82.2,102.22c-1.8,0-3.26,1.46-3.26,3.26s1.46,3.26,3.26,3.26,3.26-1.46,3.26-3.26-1.46-3.26-3.26-3.26Z"/>
      <path class="cls-1" d="M89.48,25.89c-2.22,0-4.02,1.8-4.02,4.02s1.8,4.02,4.02,4.02,4.02-1.8,4.02-4.02-1.8-4.02-4.02-4.02Z"/>
    </g>
  </g>
</svg>