<?xml version="1.0" encoding="UTF-8"?>
<svg id="OBJECTS" xmlns="http://www.w3.org/2000/svg" viewBox="0 0 185.36 185.36">
  <defs>
    <style>
      .cls-1 {
        fill: #3d0316;
      }
    </style>
  </defs>
  <path class="cls-1" d="M20.61,142.45s-.02.03-.02.05c0-.01.02-.03.02-.05Z"/>
  <path class="cls-1" d="M12.67,170.01s0-.04.01-.06c0,.02,0,.04-.01.06Z"/>
  <path class="cls-1" d="M28.59,160.19c.48-.32,1.17-.99,1.84-1.63-.58.42-1.14.92-1.84,1.63Z"/>
  <path class="cls-1" d="M30.44,158.55s0,0,0-.01c0,0-.02.01-.02.02,0,0,0,0,.01-.01Z"/>
  <path class="cls-1" d="M97.42,92.17s.03-.03.05-.04c-.02.01-.03.03-.05.04Z"/>
  <path class="cls-1" d="M118.25,70.71s-.03.03-.04.04c.01,0,.03-.02.04-.04Z"/>
  <path class="cls-1" d="M169.75,52.86c0-.17,0-.37.01-.57-.01.19-.02.38-.01.57Z"/>
  <path class="cls-1" d="M169.64,52.34c-.02.45-.04.89-.07,1.03.07-.11.14-.99.11-1.46l-.15-.09c-.02-1.08.1-.25.13-1.3.12-.05.12.91.1,1.76.04-.76.16-1.52.04-1.83.09-.71.15.09.25-.77,0-.61-.09-1.43.04-2.13h.02c.13-.84.14-1.5.14-2.14,0-.64.03-1.26.17-2.04l.02.17c.06-.27.1-.68.14-1.15.05-.46.11-.99.21-1.48-.06.28-.18.52-.12-.08.11-.57.16-1.05.23-1.49.07-.44.13-.84.24-1.25v-.82c.07-.5.19-1.17.32-1.99.07-.41.14-.85.22-1.32.09-.47.18-.96.28-1.48.18-1.04.43-2.16.67-3.34.12-.59.26-1.18.4-1.78.14-.6.27-1.21.42-1.81.15-.6.3-1.21.45-1.8.15-.6.32-1.18.47-1.76.16-.58.3-1.14.47-1.69.16-.55.32-1.08.47-1.58.08-.25.15-.5.22-.74.08-.24.15-.47.23-.7.15-.47.29-.9.42-1.31.06-.19.13-.38.19-.57.06-.18.12-.36.18-.53.13-.35.25-.68.36-.99.23-.62.43-1.17.6-1.63l-.08.28c.4-1.07.82-2.26,1.31-3.55l.2-.53c.54-1.44-.87-2.84-2.3-2.29l-.91.35c-1.6.6-3.26,1.22-4.95,1.86-.42.16-.84.31-1.27.46-.29.1-.59.2-.88.3-.45.15-.89.3-1.34.45-.9.29-1.81.57-2.71.86-3.6,1.1-7.09,1.98-9.6,2.58-.5.04-1.07.15-1.65.25-.58.1-1.17.21-1.67.29.57-.06.39.06-.05.14-.77.15-1.17.21-1.38.26-.21.04-.24.06-.26.08-.05.04-.11.09-1.66.38-.67.12-1.69.28-2.93.46-.62.08-1.3.16-2.01.26-.18.02-.36.04-.54.07-.18.02-.37.04-.56.06-.37.04-.76.07-1.15.11-.39.04-.78.08-1.18.11-.4.03-.8.06-1.2.09l-.6.04c-.35.03-.73.06-1.08.08-.72.04-1.47.06-2.19.1-1.46.05-2.91.13-4.31.16h-.04c-1.54.05-2.3,1.89-1.24,3.01,1.07,1.13,1.94,2.05,2.53,2.66.62.57,1.22,1.16,1.84,1.77.3.31.61.62.92.93.2.21.41.41.61.62.69.71,1.38,1.42,2.02,2l-.15-.1c1.14,1.09,6.52,6.78,9.08,9.41-.63.69-1.21,1.35-2.06,2.11l.13-.19c-.57.47-1.54,1.56-2.53,2.45.29-.25.58-.42.02.15-1.14,1.03-1.82,1.81-2.68,2.54l-.68.84c-3.79,3.74-18.59,18.69-22.37,22.48l.14-.16c-5.74,5.79-17.61,17.58-23.47,23.64-1,.84-2.26,2.12-3.25,3.06.57-.5.44-.26.02.15-2.95,2.91-.14.25-3.08,3.24-3.34,3.48-16.52,16.41-19.62,19.36-1.19,1.37-2.76,2.86-4.12,4.25-.39-.11-.71-.17-.92-.15-.97-.27.14-.12-1.03-.43-.43-.07-.93-.12-1.44-.19-.25-.04-.52-.07-.77-.1-.26-.04-.51-.08-.75-.13l.02-.02c-.3-.06-.58-.11-.85-.13-.27-.03-.52-.06-.77-.08-.49-.05-.95-.05-1.4-.05-.45,0-.89-.01-1.36,0-.23,0-.47,0-.72-.01-.25,0-.51-.02-.79-.03l.24-.04c-.39-.03-.97-.01-1.62.01-.33.02-.67.04-1.03.06-.18,0-.35.02-.53.02-.18.01-.36.02-.53.03.4-.02.75.04-.08.13-.4.02-.77.05-1.12.08-.35.05-.67.09-.98.13-.62.07-1.18.19-1.77.24-.37.1-.73.22-1.09.34-1.37.29-3.74.89-6.49,1.99-1.37.56-2.84,1.22-4.3,2.03-1.47.8-2.95,1.73-4.36,2.76-1.41,1.03-2.74,2.16-3.95,3.33-.61.58-1.17,1.19-1.72,1.78-.26.3-.52.6-.77.9-.06.07-.13.15-.19.22-.06.08-.12.15-.18.23-.12.15-.24.3-.35.44-.12.15-.23.29-.34.44-.11.14-.21.29-.32.44-.21.29-.41.57-.61.85-.36.55-.69,1.07-1,1.55-.15.24-.3.47-.44.69-.13.22-.25.44-.37.64-.23.4-.44.76-.61,1.06l.09-.2c-.13.23-.27.46-.41.71-.14.24-.26.5-.4.76-.27.52-.55,1.08-.85,1.65-.28.58-.55,1.19-.84,1.82-.3.62-.56,1.29-.84,1.96-1.11,2.69-2.15,5.7-3.01,8.75-1.72,6.1-2.82,12.3-3.44,16.45-.08.31-.16.66-.23,1.03-.02.1-.04.2-.06.29-.03.17-.06.34-.09.51-.06.35-.12.69-.18,1.05-.23,1.41-.47,2.84-.67,4.07.27-1.4.29-.99.12.05-.07.46-.14.86-.19,1.21.35-.05.66-.1.92-.14.53-.09.89-.15,1.15-.19.51-.09.58-.11.66-.14.15-.05.33-.11,3.93-.71.62-.11,1.45-.26,2.45-.44.96-.18,2.07-.37,3.28-.6.61-.12,1.24-.23,1.89-.36.65-.13,1.32-.27,2-.41.68-.14,1.38-.3,2.08-.45.7-.15,1.4-.32,2.11-.49,1.41-.33,2.8-.71,4.14-1.07.67-.2,1.32-.39,1.95-.57.16-.05.31-.09.47-.14.15-.05.31-.1.46-.15.3-.1.6-.2.89-.29.29-.09.57-.19.85-.28.14-.05.27-.09.41-.13.13-.05.26-.1.39-.14.52-.19,1-.36,1.44-.52.22-.08.43-.16.63-.23.2-.08.39-.15.56-.22.35-.14.66-.26.91-.36.26-.13.54-.26.82-.4.28-.13.56-.28.85-.42.58-.28,1.17-.56,1.77-.85,1.17-.62,2.35-1.19,3.31-1.85l-.18.15c.26-.16.69-.42,1.23-.73.27-.15.56-.36.88-.56.32-.21.66-.43,1.02-.66,1.44-.94,3.14-2.23,4.72-3.65,1.58-1.42,3.05-2.99,4.18-4.37,1.13-1.39,1.96-2.58,2.34-3.2l-.24.32c.33-.55.57-.94.77-1.24.19-.31.33-.52.47-.72.14-.2.28-.38.45-.62.16-.24.35-.55.61-.99-.07.04-.07-.06-.01-.24.05-.18.14-.44.26-.73.11-.29.26-.6.37-.9.12-.3.23-.57.31-.76l.02.05c.06-.15.13-.31.21-.5.07-.19.14-.4.22-.63.08-.22.16-.46.25-.71.08-.25.16-.52.25-.79.08-.27.17-.54.25-.82.08-.28.15-.56.23-.84.16-.55.28-1.11.41-1.61l.08.1c.09-.42.18-.94.3-1.5.03-.14.06-.28.09-.42.03-.14.05-.29.08-.44.05-.29.1-.59.15-.88.06-.29.09-.58.13-.86.04-.28.07-.55.11-.8.06-.5.09-.94.12-1.25.13-1.42.25-3.23.16-5.16-.09-1.93-.38-3.98-.86-5.82l-.06-.62c-.02-.21-.06-.41-.08-.61l-.13-.91c.55-.51,1.07-.99,1.25-1.26,0,.03.71-.66.72-.56.11-.31.69-.74,1.11-1.2.13-.19-.15.09-.3.17l.97-1.04c.43-.36.58-.4.17.04,2.67-2.59,15.43-15.08,18.22-17.96-.44.29-1.27,1.21-1.72,1.42.68-.81,1.13-1.08,1.39-1.48.47-.11,1.69-1.6,2.44-1.98l.11-.32.43-.31c3.2-3.39.7-.8,3.66-3.69,1.65-1.67,2.32-2.61,3.29-3.49-.17.15-.49.36-.12-.06.16.01,1.1-1.23,1.41-1.35.42-.44,1.82-1.81,1.23-1.47.3-.17,1.56-1.39.88-.6.42-.41.85-.8,1.12-1.13l-.57.5c1.4-1.43,2.26-2.1,3.08-3.13l-.57.47c.84-.85,1.54-1.56,1.99-1.77l-.83.9c1.4-1.4,2.24-2.25,3.35-3.48l-.42.41c1.37-1.6,9.07-9.46,10.29-10.98l-.73.54,1.1-1.25c-.13.13-.25.74-.38.92,2.61-2.62,15.59-15.67,17.98-17.92.99-.89.32-.02.32,0,1.11-1.18.4-.59,1.38-1.55.28-.25.02.13-.12.29.42-.44.85-.8.83-.87-.57.5-.46.16-.76.31l1.27-1.24.02.13c.28-.28.51-.91,1.78-2.09,2.11-2.04,4.35-4.31,6.46-6.37.01.08-.4.54-.82,1,.28-.28.7-.71.99-.94-.58.42.83-.92.4-.56.39-.49.85-.99,1.33-1.49.35.16,1.19.87,1.54,1.2l-.05.02c.69.63,2.33,1.97,3.45,3.03l-.12.04c1,.81,2.7,2.53,3.37,3.16,1.48,1.5,3.68,3.91,5.8,5.77l1.45,1.5c1.71,1.77,4.71.69,4.9-1.77ZM51.53,139.91c.03.18.07.36.09.5.02.14.04.23.03.24h.15c.05.27-.15.1-.07.35.22.06.05.42.18.49-.02,0,0,.13-.06.13.12.02.05.12.09.2.04.02.03-.03.06-.05l.07.17c-.02.08-.08.11-.11.03.04.48.35,2.74.51,3.24.07-.08-.02-.23.1-.31.1.12.01.2.1.24-.18.09,0,.3-.17.44l.12.02-.05.08c.23.56.08.12.16.65.08.3.25.41.23.59,0-.03.05-.1.09-.03-.09.03.11.19.02.25.03.07.06.32.18.21-.06.05-.04.28-.12.16.01.08,0,.15.05.2l.02-.1c.07.25,0,.4.15.54l.03-.1c.04.15.07.27-.04.36l-.07-.15c.05.25.09.4.2.59v-.07c.17.24.56,1.59.78,1.8l.08-.13.13.19s-.35-.03-.32-.06c.1.44.68,2.75.71,3.17-.02.18-.15.07-.17.07.08.19.13.06.16.24,0,.05-.08,0-.1-.02.03.07,0,.15.06.15.02-.1.15-.09.22-.15l.04.22h-.08s.06.05.12.09c-.13.11-.21.16-.29.22.03-.02-.04.08-.2.29-.08.1-.18.23-.29.38-.06.07-.12.15-.19.24-.07.08-.14.17-.22.26-.31.36-.67.78-1.09,1.22-.41.45-.88.89-1.34,1.35-.95.89-1.96,1.75-2.76,2.35-.1.08-.19.15-.28.22-.09.07-.18.13-.27.19-.17.12-.32.23-.44.31-.25.18-.39.28-.42.29v.22c-.86.56-1.01.59-1.14.63-.07.02-.13.03-.27.11-.07.04-.16.09-.28.17-.12.08-.27.18-.47.3-.22.26-.77.59-1.35.92-.21-.82-.45-1.75-.53-2.09l.02.02c-.22-.87-.58-2.68-.87-3.57.06-.16,0-.35,0-.5-.02.09-.09.07-.1,0-.07-.45-.07-.02-.19-.47-.18-.51-.45-2.53-.46-3-.17-.23-.13-.56-.25-.79l.03.02c-.1-.25-.23-1.76-.32-2.06v.04c-.14-.25.01-.24.02-.46-.14.05-.26-.16-.28-.25h.03c-.05-.13-.22-.41-.27-.62h.08c-.11-.17-.13-.52-.16-.65-.01-.2.02-.49-.02-.77,2.93-2.84,5.84-5.7,8.8-8.66.15-.09,0,.05-.13.21.74-.77,1.45-1.48,2.14-2.18,0,.05.02.09.02.14-.03.03-.03,0-.05-.02.08.27.11.52.19.77-.02.08-.07.1-.1.13.03-.03.11.32.18.68ZM61.95,120.14c.14,0,.33.04.56.09,0,0,.01,0,.02,0-.04.04-.07.07-.11.11,0,0,0,0,0,0-.06-.02-.13-.05-.24-.08-.11-.03-.25-.06-.42-.1-.01-.03.06-.04.2-.03ZM34.77,127.84c.41-.21.79-.42,1.15-.58.35-.16.67-.31.94-.44.28-.11.51-.21.68-.28,1.17-.43.29.1.28.13.34-.16.55-.26.68-.33.14-.07.2-.11.26-.15.12-.07.21-.13.81-.35.34-.09-.04.11-.21.21.52-.21,1.03-.33,1.05-.4-.68.18-.45-.07-.77-.07.53-.17,1.05-.36,1.58-.51l-.04.12c.18-.05.38-.19.74-.36.18-.09.4-.17.68-.27.28-.09.61-.19,1.01-.27,1.35-.29,2.77-.54,4.21-.72,1.43-.16,2.88-.25,4.27-.25-.04.06-.63.11-1.21.16.37,0,.94-.03,1.28,0-.33-.04-.04-.08.27-.08.31,0,.64,0,.38-.03.25-.03.52-.05.79-.06.27,0,.55,0,.83,0,.28.01.57.02.85.04.28.03.57.06.85.09,1.01.11,1.99.27,2.83.37-2.43,2.4-5.83,5.73-8.22,8.09-.16-.05-.29-.04-.41-.12l-.16.07c-.71-.13-3.57-.48-4.29-.6h.03c-1.1-.16-3.35-.58-4.5-.68-.16-.12-.4-.15-.58-.21.09.06.05.11-.03.09-.55-.12-.05.05-.62-.02-.66-.04-3.12-.65-3.67-.85-.33.06-.7-.12-1.02-.1l.04-.02c-.33-.02-2.14-.55-2.52-.59l.05.03c-.06,0-.1,0-.14,0,.19-.11.37-.22.55-.33.46-.26.89-.52,1.3-.73ZM27.67,132.88c.45-.42.91-.82,1.38-1.21.89.28,1.75.56,2.67.75.02.04-.01.03-.04.04.31.03.57.11.85.13.07.05.08.1.09.14-.02-.04.36.03.75.11.19.04.39.08.54.12.15.03.25.06.25.06l.05-.14c.29.06.05.18.33.2.15-.18.45.12.56.03,0,.02.13.05.1.11.06-.1.14,0,.23,0,.04-.02-.02-.04-.03-.07h.2c.07.05.07.12-.01.12.49.15,2.89.76,3.45.81-.05-.1-.23-.07-.27-.22.16-.04.21.07.29,0,.02.2.31.11.38.33l.06-.1.06.08c.66.01.16-.03.71.11.33.05.51-.07.68.02-.03,0-.09-.09,0-.1,0,.1.24-.03.26.08.08,0,.35.07.28-.08.03.07.27.15.11.18.08.02.15.05.22.04l-.1-.06c.28.03.4.16.6.08l-.09-.07c.16.02.3.04.34.18h-.17c.27.06.43.08.67.05l-.08-.02c.31-.08,1.83.09,2.12-.03l-.1-.12.24-.04s-.17.31-.18.27c.34.06,1.66.24,2.59.4-.83.83-1.01.83-2.12,1.87.31-.05-1.1,1.51-1.66,2.09v-.05c-.84.87-2.67,2.92-4.06,4.35l-.02-.13c-.63.72-1.64,1.74-2.55,2.64-.01,0-.03-.01-.04-.02.01,0,.02.02.03.03-.02.02-.04.04-.06.06-.17-.08-.3-.05-.42-.14l-.14.07c-.62-.12-3.11-.4-3.74-.5h.03c-.96-.13-2.92-.49-3.93-.56-.14-.12-.35-.13-.5-.19.08.05.04.11-.03.09-.48-.1-.04.05-.54,0-.58-.02-2.72-.55-3.2-.73-.29.07-.61-.09-.89-.07l.03-.02c-.29,0-1.86-.47-2.2-.49l.04.03c-.3.02-.23-.11-.45-.21,0,.15-.26.18-.36.17v-.03c-.14,0-.48.05-.72.01l.03-.08s-.06,0-.09,0c0,0,0,0,0-.01.19-.43.34-.76.42-.98l-.51.69.32-.73.16-.37c.06-.12.12-.24.18-.36-.05.08-.06.3-.05.51,0,.18,0,.35-.03.44.04-.08.09-.17.14-.27.03-.06.06-.12.1-.19.04-.06.07-.13.11-.2.16-.27.34-.59.54-.94.1-.18.21-.36.32-.55.11-.19.22-.4.36-.6.26-.4.54-.84.84-1.29.15-.22.29-.47.46-.69.16-.23.33-.45.5-.69.16-.24.35-.46.53-.7.19-.23.37-.48.57-.71.79-.94,1.67-1.86,2.6-2.74ZM38.79,166.55c-.51.16-.66.13-.14-.1-.41.16-1.01.41-1.76.71-.09.04-.19.08-.29.12-.1.04-.2.07-.31.11-.21.08-.43.15-.65.24-.45.16-.93.34-1.43.52-2.04.68-4.52,1.45-7.05,2.09-5.06,1.29-10.31,2.21-12.23,2.58.51.02,1.69-.26,2.17-.18-1,.29-1.5.23-1.94.41-.22-.09-.78,0-1.39.08-.31.04-.62.09-.92.11-.15.01-.29.02-.42.02h-.05s0,0-.01,0v-.02s0-.03,0-.04c0,.05,0,.1,0,.15,0-.03,0-.06,0-.09-.03.04-.09.08-.12.09-.03.02-.04.02-.04.02,0-.01.04-.06.07-.14,0,0,0-.02-.01-.03v-.02s-.02,0-.02,0h0s0,0,0,0v-.04c.06-.45.1-.85.14-1.21.08-.71.15-1.29.29-1.9-.05.21-.19.57-.13.02.07-.04.12-.44.17-.86.05-.42.12-.87.21-1,.09-.58.47-2.46.18-1.86.15-.3.53-1.96.39-.96.12-.56.26-1.1.3-1.52l-.19.71c.18-.96.38-1.68.53-2.32.15-.65.27-1.21.35-1.84l-.24.68c.27-1.12.49-2.07.76-2.46l-.23,1.16c.11-.46.22-.88.31-1.27.1-.39.19-.75.28-1.1.17-.7.33-1.37.52-2.14l-.17.54c.21-.99,1.02-4.04,2.1-6.97.28-.73.56-1.45.82-2.14.03-.08.06-.16.09-.24.58.18,1.15.35,1.76.47.01.04-.01.03-.04.04.27.02.5.09.74.1.06.05.07.1.08.14-.01-.04.32.02.66.08.17.03.34.07.47.1s.22.05.22.05l.05-.14c.26.05.04.18.29.19.13-.18.39.1.49.01,0,.02.11.05.09.11.06-.1.12,0,.2-.01.03-.02-.01-.04-.03-.07h.18c.06.04.06.11-.01.11.43.13,2.52.66,3.01.69-.04-.09-.2-.07-.23-.21.14-.05.18.06.25,0,.01.2.27.1.32.31l.06-.1.05.08c.57,0,.14-.03.62.09.29.04.45-.09.6,0-.02,0-.07-.08,0-.1,0,.1.21-.03.23.07.07,0,.3.06.25-.09.03.07.23.14.1.17.07.02.13.05.19.03l-.08-.05c.24.02.35.15.53.06l-.08-.07c.14.02.26.03.3.17h-.15c.24.05.38.07.59.04l-.07-.02c.27-.08,1.6.04,1.85-.08l-.09-.12.21-.05s-.15.31-.17.27c.25.04,1.11.16,1.86.27-1.83,1.74-4.08,3.86-5.97,5.88l-1.88,1.46-.22.26s-.19,5.2,3.77,2.33l.02.13.67-.68c.85-.77,1.14-1.23,1.16-1.1l-1.12,1.1c.84-.79.31-.19.04.17.35-.33.69-.65.98-.9.13-.19-.15.09-.29.2.41-.46.96-1.14,1.53-1.64.84-.82.17.07,1.15-.9,1.17-1.14,2.34-2.27,3.5-3.4.05.18.07.36.13.53-.02.07-.07.09-.1.12.06-.05.28,1.21.26,1.23h.14c.04.23-.15.09-.08.3.22.05.04.37.16.43-.02,0,0,.11-.07.11.11.01.04.11.08.17.03.02.03-.02.06-.05l.07.15c-.02.07-.09.09-.11.03.03.42.28,2.4.42,2.83.07-.07,0-.2.11-.27.09.1,0,.18.09.21-.18.08,0,.26-.18.39h.12s-.06.08-.06.08c.21.49.08.11.14.56.07.26.24.35.21.51,0-.02.05-.09.09-.03-.09.03.1.17.01.22.02.06.05.28.17.18-.06.05-.05.25-.13.14,0,.07,0,.13.04.17l.02-.09c.06.22-.02.35.13.47l.04-.09c.03.13.06.24-.05.31l-.07-.13c.05.22.08.35.18.51v-.07c.17.2.51,1.39.72,1.56l.08-.12.12.16s-.34-.02-.31-.05c.09.39.59,2.4.6,2.77-.02.16-.15.06-.17.06.08.17.12.05.15.21,0,.04-.08,0-.1-.01.03.06,0,.13.05.13.02-.09.15-.08.22-.13l.02.15c-.27.12-.6.25-.88.41-.18.13.16-.03.32-.06-.4.2-.8.42-1.2.61ZM62.05,127.94c.08.35.16.71.2,1.06.14,1.08-.15.09,0,1.35.33,3.31.15,6.61-.51,9.81-.68,3.2-1.83,6.31-3.41,9.27-.11.11-.02-.05.05-.22-.23.46-.47.9-.72,1.32-.06-.22-.1-.4-.13-.52l.02.02c-.26-1-.68-3.07-1-4.09.06-.18,0-.4-.02-.57-.02.1-.09.08-.1,0-.09-.52-.07-.02-.2-.54-.2-.58-.53-2.89-.55-3.44-.18-.26-.14-.64-.28-.9l.04.02c-.1-.29-.28-2.02-.38-2.36v.05c-.14-.29,0-.27.01-.52-.14.06-.26-.19-.29-.29h.03c-.05-.15-.23-.47-.29-.72h.08c-.12-.2-.15-.59-.18-.74-.01-.19,0-.45-.02-.71,1.14-1.21,6.47-6.53,7.56-7.59,0,.02,0,.03.01.04.02.08.04.17.06.26ZM62.04,127.58s.02-.02.03-.02c0,.02,0,.03-.03.02Z"/>
</svg>