<?xml version="1.0" encoding="UTF-8"?>
<svg id="OBJECTS" xmlns="http://www.w3.org/2000/svg" viewBox="0 0 185.36 185.36">
  <defs>
    <style>
      .cls-1 {
        fill: #3d0316;
      }
    </style>
  </defs>
  <polygon class="cls-1" points="76.25 62.08 141.21 160.37 136.02 163.57 72.79 64.22 65.65 64.25 132.86 177.45 151.54 183.8 153.33 162.76 81.15 56.66 76.25 62.08"/>
  <path class="cls-1" d="M45.08,24.89c4.1,11.48,10.69,25.53,10.69,25.53l16.07-9.91s-9.55-12.35-17.85-21.26c2.16-3.62,2.28-8.29-.09-12.13C50.51,1.62,43.3-.09,37.8,3.3s-7.21,10.6-3.82,16.1c2.42,3.93,6.79,5.91,11.09,5.49ZM61.81,42.24c-2,1.23-4.05,1.51-4.6.63s.63-2.6,2.63-3.83,4.05-1.51,4.6-.63-.63,2.6-2.63,3.83ZM57.79,35.71c-2,1.23-4.05,1.51-4.6.63s.63-2.6,2.63-3.83,4.05-1.51,4.6-.63-.63,2.6-2.63,3.83ZM53.76,29.18c-2,1.23-4.05,1.51-4.6.63s.63-2.6,2.63-3.83,4.05-1.51,4.6-.63-.63,2.6-2.63,3.83ZM40.33,7.4c3.24-2,7.48-.99,9.48,2.25,1.14,1.85,1.27,4.02.6,5.91-3.89-3.81-7.06-6.15-8.09-4.94-.95,1.12-.28,4.8,1.16,9.49-2.14-.15-4.18-1.27-5.4-3.24-2-3.24-.99-7.48,2.25-9.48Z"/>
  <path class="cls-1" d="M100.8,28.7c-2.98.7-35.31,19.5-35.31,19.5,0,0-31.32,20.45-33.28,22.79-1.96,2.35,12.04,21.36,16.68,18.11,4.64-3.24-5.24-8.5-5.24-8.5l17.3-19.76,11.75-.96,6.13-10.07,25.42-6.59s.26,11.2,5.24,8.5-5.72-23.74-8.7-23.04ZM37.92,70.76l6.93-5.75-2.35,10.79-4.59-5.04ZM46.77,73.17c-.5.09,2.75-11.04,2.75-11.04l6.53-4.03,2.3.79s-11.08,14.19-11.57,14.27ZM78.68,46.36l.32-2.41,6.53-4.03s11.4,2.09,11.1,2.5c-.3.41-17.95,3.94-17.95,3.94ZM100.89,39.8l-10.7-2.75,8.25-3.62,2.45,6.36Z"/>
</svg>