<?xml version="1.0" encoding="UTF-8"?>
<svg id="OBJECTS" xmlns="http://www.w3.org/2000/svg" viewBox="0 0 185.36 185.36">
  <defs>
    <style>
      .cls-1 {
        fill: #3d0316;
      }
    </style>
  </defs>
  <path class="cls-1" d="M73.28,67.15c.13-.29.26-.58.4-.88-.05-.04-.12-.09-.17-.13l-.23,1Z"/>
  <path class="cls-1" d="M174.82,151.37c-.05-.09-4.76-9.12-4.15-19.36,0-.03,0-.05,0-.08,0-.17,0-.34-.04-.52,0-.02,0-.04,0-.07-.03-.15-.08-.31-.15-.46l-6.84-15.36c1.32-2.09,2.51-4.26,3.54-6.52.3-.66.29-1.42-.04-2.06L114.31,1.54c-.41-.82-1.32-1.32-2.18-1.32-.92.02-1.75.56-2.13,1.39C92.86,39.1,27.43,53.18,26.77,53.32c0,0,0,0-.01,0-1.34.27-18.3,4.18-16.34,24.15.03.29.11.58.24.84l52.83,105.41s.02.02.03.04c.03.05.07.1.1.15.1.16.21.31.34.44.06.06.12.1.18.15.13.11.27.2.42.27.08.04.15.07.23.1.17.06.34.1.52.13.05,0,.1.03.15.04.32.02,1.83.11,4.38.11,13.3,0,54.9-2.51,104.04-30.58,1.12-.64,1.53-2.05.92-3.19ZM160.44,120.11l4.76,10.7c-4.79,2.52-18.3,9.28-37.23,15.81-.03,0-.05.02-.08.03-1.02.35-2.06.7-3.11,1.05,13.22-6.66,26.58-15.69,35.66-27.58ZM138.78,111.41c.5.64.38,1.57-.26,2.06-16.94,13.2-36.15,17.78-36.96,17.97-.11.03-.22.04-.34.04-.67,0-1.27-.46-1.43-1.14-.18-.79.31-1.58,1.1-1.77.19-.04,19.41-4.64,35.82-17.43.64-.5,1.57-.38,2.07.26ZM134.17,94.84c.56-.59,1.49-.61,2.08-.04.59.56.61,1.49.04,2.08-17.26,18-44.89,23.49-46.06,23.72-.09.02-.19.03-.28.03-.69,0-1.31-.49-1.44-1.19-.15-.8.37-1.57,1.17-1.72.28-.05,27.89-5.56,44.49-22.87ZM76.42,83.49s13.7,1.76,24.02-3.81c10.32-5.57,15.05-15.86,15.05-15.86,0,0-3.33,15.2-14.26,20.32-10.93,5.12-24.82-.66-24.82-.66ZM69.7,62.19c.37-.72,4.06-.1,6.25.35,1.38-1.89,3.08-3.73,5.22-5.41-1.76-1.62-4.87-4.77-3.53-5.75,1.27-.93,4.66,1.83,6.62,3.61.53-.32,1.08-.64,1.65-.94,2.34-1.25,4.58-2.08,6.71-2.58-.21-2.07-.4-5.79.86-5.97,1.15-.17,2.42,3.13,3.16,5.41,2.46-.12,4.74.19,6.81.78.32-1.93,1.09-5.47,2.34-5.4,1.21.07,1.3,4.28,1.24,6.75,6.16,2.92,9.78,7.82,10.03,8.18-.53-.22-7.66-3.15-15.72-3.6,1.02.98,1.91,2.14,2.58,3.48,3.17,6.3.63,13.97-5.66,17.14-6.3,3.17-13.97.63-17.14-5.66-.88-1.74-1.3-3.6-1.35-5.43-6.14,7.68-8.85,17.33-8.85,17.33,0,0-1.62-8.41,2.26-17.1.07-.43.14-.87.24-1.3-1.67-1.24-4.07-3.2-3.72-3.88ZM67.38,169.24c-.17.24-.33.48-.49.72-.05.08-.1.16-.15.23-.16.25-.31.49-.45.73-.04.07-.08.14-.12.21-.15.25-.28.5-.42.75-.03.06-.06.11-.09.17-.14.26-.27.52-.39.78-.02.04-.04.08-.06.13-.13.28-.25.55-.37.83,0,.02-.02.03-.02.05-.15.35-.29.7-.41,1.04L15.14,76.57c-1.05-12.63,7.2-16.85,10.86-18.1l50.98,101.73c-.2.13-.38.26-.57.39-.24.16-.48.32-.71.49-.26.19-.52.38-.77.57-.18.13-.37.27-.54.4-.41.32-.81.64-1.2.96,0,0-.01.01-.02.02-.4.33-.78.67-1.15,1-.05.05-.1.1-.16.15-.31.28-.61.57-.9.85-.08.08-.15.15-.22.23-.26.26-.51.51-.75.77-.08.09-.15.17-.23.26-.22.25-.45.49-.66.74-.08.09-.15.18-.22.27-.2.24-.4.48-.59.72-.07.09-.13.18-.2.26-.18.24-.36.48-.53.72-.06.08-.12.17-.18.25ZM68.01,180.33s0,0,0,0c.02-.2.04-.41.08-.63,0-.02,0-.05,0-.07.03-.21.07-.43.12-.66.01-.07.03-.15.05-.22.03-.16.07-.33.11-.5.02-.1.05-.19.07-.29.06-.23.13-.46.2-.7.04-.12.08-.24.12-.37.05-.15.1-.3.16-.45.05-.14.1-.28.16-.42.08-.19.16-.39.25-.58.09-.2.18-.39.28-.6.08-.16.16-.32.24-.49.08-.15.16-.31.25-.47.11-.2.22-.4.34-.6.12-.2.25-.41.38-.62.13-.2.27-.41.41-.62.1-.15.21-.3.32-.45.17-.23.34-.46.52-.69.11-.15.23-.29.35-.44.23-.28.48-.57.74-.86.12-.13.24-.26.36-.39.24-.26.49-.51.75-.77.1-.1.2-.2.3-.3.35-.34.73-.68,1.11-1.02.13-.11.27-.23.41-.34.32-.27.64-.53.98-.8.13-.1.26-.21.4-.31.45-.34.92-.68,1.41-1.02.16-.11.33-.22.5-.33.37-.25.76-.5,1.16-.75.13-.08.26-.17.4-.25,3.01-.47,5.97-.99,8.88-1.55.15-.03.29-.06.44-.09,1.32-.25,2.62-.52,3.91-.79.19-.04.39-.08.58-.12,1.36-.29,2.72-.58,4.06-.89.05-.01.11-.02.16-.04,2.85-.65,5.64-1.33,8.37-2.04.2-.05.41-.11.61-.16,1.11-.29,2.2-.58,3.29-.88.31-.08.61-.17.91-.25,1.01-.28,2.01-.57,3-.85.29-.08.58-.17.86-.25,1.13-.33,2.25-.67,3.35-1,.11-.03.22-.07.33-.1,1.25-.38,2.48-.77,3.69-1.16.14-.05.28-.09.42-.14,1.02-.33,2.03-.66,3.03-1,.32-.11.63-.21.95-.32.82-.28,1.63-.55,2.43-.83.34-.12.68-.24,1.02-.36.8-.28,1.58-.56,2.36-.84.29-.1.58-.21.87-.31,1.04-.38,2.06-.76,3.07-1.13,0,0,0,0,0,0,1.02-.39,2.03-.77,3.01-1.15.26-.1.5-.2.76-.3.71-.28,1.41-.55,2.09-.83.31-.12.61-.25.92-.37.63-.25,1.24-.5,1.85-.75.29-.12.58-.24.87-.36.66-.27,1.3-.54,1.93-.81.2-.09.41-.17.61-.26.83-.35,1.65-.7,2.43-1.05.06-.02.11-.05.16-.07.72-.32,1.42-.63,2.1-.93.21-.09.41-.19.62-.28.52-.23,1.03-.47,1.53-.69.22-.1.43-.2.65-.3.49-.22.96-.44,1.42-.66.17-.08.35-.16.52-.24.55-.26,1.09-.51,1.6-.76.06-.03.12-.06.18-.08.59-.28,1.15-.55,1.68-.81.07-.04.14-.07.21-.11.44-.21.85-.42,1.25-.62.13-.06.25-.13.38-.19.33-.17.65-.33.96-.48.11-.06.23-.11.34-.17.1-.05.2-.1.3-.15.35,6.85,2.44,12.68,3.72,15.66-49.46,27.67-91.7,28.94-101.61,28.84Z"/>
</svg>