<?xml version="1.0" encoding="UTF-8"?>
<svg id="OBJECTS" xmlns="http://www.w3.org/2000/svg" viewBox="0 0 185.36 185.36">
  <defs>
    <style>
      .cls-1 {
        fill: #3d0316;
      }
    </style>
  </defs>
  <path class="cls-1" d="M85.81,105.73s23.51,47.39,33.87,58.25c10.36,10.85,17.54-.83,12.92-11.9-4.62-11.08-29.22-55.51-29.22-55.51l-17.57,9.17Z"/>
  <path class="cls-1" d="M75.59,20.54S63.99.83,59.65.03c-4.34-.79-23.87,12.02-25.86,16.56-2,4.54,10.57,20.25,10.57,20.25,20.37-3.65,31.24-16.31,31.24-16.31ZM59.7,7.71c1.25,0,2.27,1.01,2.27,2.27s-1.01,2.27-2.27,2.27-2.27-1.01-2.27-2.27,1.01-2.27,2.27-2.27ZM52.9,12.24c.93,0,1.68.75,1.68,1.68s-.75,1.68-1.68,1.68-1.68-.75-1.68-1.68.75-1.68,1.68-1.68ZM47.55,20.23c2.02,0,3.67,1.64,3.67,3.67s-1.64,3.67-3.67,3.67-3.67-1.64-3.67-3.67,1.64-3.67,3.67-3.67Z"/>
  <path class="cls-1" d="M102.9,163.5c5.81,10.28,10.41,17.37,12.72,18.78,9.06,5.55,41.07,5.85,35.54-18.55-2.6-11.49-67.46-129.23-67.46-129.23,0,0,7.15-3.14,7.4-8.51.21-4.39-3.98-8.82-6.01-11.7-.84,6.13-7.8,13.93-25.77,23.96-14.73,8.22-21.04,5.06-23.7,1.52-1.29,5.09,1.38,13.05,4.17,13.45,3.3.46,8.37-.16,8.37-.16,9.27,20.36,54.74,110.45,54.74,110.45ZM134.19,174.9c-13.02,6.8-28.69-21.64-41.25-45.91-7.39-14.28-35.51-73.19-35.51-73.19l22.41-11.7s39.41,68.85,48.58,86.41c9.17,17.57,18.8,37.59,5.77,44.39Z"/>
  <path class="cls-1" d="M94.16,91.29c1.41,0,2.56-1.14,2.56-2.56s-1.14-2.56-2.56-2.56-2.56,1.14-2.56,2.56,1.14,2.56,2.56,2.56Z"/>
  <path class="cls-1" d="M89.05,95.44c0-2.29-1.86-4.15-4.15-4.15s-4.15,1.86-4.15,4.15,1.86,4.15,4.15,4.15,4.15-1.86,4.15-4.15Z"/>
  <path class="cls-1" d="M87.98,76.91c0-3.27-2.65-5.91-5.91-5.91s-5.91,2.65-5.91,5.91,2.65,5.91,5.91,5.91,5.91-2.65,5.91-5.91Z"/>
</svg>